<svg height="512pt" viewBox="-125 0 512 512" width="512pt" xmlns="http://www.w3.org/2000/svg">
    <path
        d="m255.371094 19.894531v472.210938c0 6.761719-5.523438 12.292969-12.28125 12.292969h-223.207032c-6.757812 0-12.28125-5.53125-12.28125-12.292969v-472.210938c0-6.761719 5.523438-12.292969 12.28125-12.292969h223.207032c6.757812 0 12.28125 5.53125 12.28125 12.292969zm0 0"
        fill="#4b5055" />
    <path
        d="m255.371094 19.894531v472.210938c0 6.761719-5.523438 12.292969-12.28125 12.292969h-187.734375c-6.761719 0-12.285157-5.53125-12.285157-12.292969v-472.210938c0-6.761719 5.523438-12.292969 12.285157-12.292969h187.734375c6.757812 0 12.28125 5.53125 12.28125 12.292969zm0 0"
        fill="#5a5f64" />
    <path
        d="m255.371094 19.894531v229.671875c-33.808594 27.460938-76.929688 43.929688-123.886719 43.929688-46.953125 0-90.074219-16.46875-123.882813-43.929688v-229.671875c0-6.761719 5.523438-12.292969 12.28125-12.292969h223.207032c6.757812 0 12.28125 5.53125 12.28125 12.292969zm0 0"
        fill="#fb5858" />
    <path
        d="m164.421875 188.605469c0 11.664062-6.058594 21.910156-15.199219 27.757812-5.117187 3.273438-11.199218 5.179688-17.738281 5.179688-18.191406 0-32.933594-14.746094-32.933594-32.9375 0-18.191407 14.742188-32.9375 32.933594-32.9375 6.539063 0 12.621094 1.90625 17.738281 5.179687 9.140625 5.847656 15.199219 16.09375 15.199219 27.757813zm0 0"
        fill="#ffc14f" />
    <path
        d="m164.421875 188.605469c0 11.664062-6.058594 21.910156-15.199219 27.757812-9.140625-5.847656-15.203125-16.09375-15.203125-27.757812 0-11.664063 6.0625-21.910157 15.203125-27.757813 9.140625 5.847656 15.199219 16.09375 15.199219 27.757813zm0 0"
        fill="#ffe1aa" />
    <path
        d="m104.910156 377.277344h-46.839844c-2.652343 0-4.800781-2.148438-4.800781-4.800782v-18.738281c0-2.648437 2.148438-4.800781 4.800781-4.800781h46.839844c2.648438 0 4.800782 2.152344 4.800782 4.800781v18.738281c0 2.652344-2.152344 4.800782-4.800782 4.800782zm0 0"
        fill="#7d8287" />
    <path
        d="m204.902344 377.277344h-46.839844c-2.652344 0-4.800781-2.148438-4.800781-4.800782v-18.738281c0-2.648437 2.148437-4.800781 4.800781-4.800781h46.839844c2.652344 0 4.800781 2.152344 4.800781 4.800781v18.738281c0 2.652344-2.148437 4.800782-4.800781 4.800782zm0 0"
        fill="#7d8287" />
    <path
        d="m19.882812 7.601562c-6.757812 0-12.28125 5.53125-12.28125 12.292969v229.671875c10.914063 8.867188 22.800782 16.589844 35.46875 22.964844v-252.636719c0-6.761719 5.523438-12.292969 12.285157-12.292969zm0 0"
        fill="#f44545" />
    <path
        d="m226.246094 89.792969c0 6-2.453125 11.441406-6.394532 15.394531-3.953124 3.941406-9.394531 6.394531-15.394531 6.394531h-145.941406c-11.988281 0-21.789063-9.800781-21.789063-21.789062 0-6 2.453126-11.441407 6.394532-15.394531 3.953125-3.941407 9.394531-6.394532 15.394531-6.394532h145.941406c11.988281 0 21.789063 9.800782 21.789063 21.789063zm0 0"
        fill="#4b5055" />
    <path
        d="m226.246094 89.792969c0 6-2.453125 11.441406-6.394532 15.394531-3.953124 3.941406-9.394531 6.394531-15.394531 6.394531h-110.46875c-11.988281 0-21.789062-9.800781-21.789062-21.789062 0-6 2.453125-11.441407 6.394531-15.394531 3.953125-3.941407 9.394531-6.394532 15.394531-6.394532h110.46875c11.988281 0 21.789063 9.800782 21.789063 21.789063zm0 0"
        fill="#5a5f64" />
    <path
        d="m58.515625 75.605469h109.933594c4.199219 0 7.601562-3.40625 7.601562-7.601563 0-4.199218-3.402343-7.601562-7.601562-7.601562h-109.933594c-16.203125 0-29.390625 13.183594-29.390625 29.390625s13.1875 29.390625 29.390625 29.390625h145.941406c16.203125 0 29.390625-13.183594 29.390625-29.390625s-13.1875-29.390625-29.390625-29.390625h-5.605469c-4.199218 0-7.597656 3.402344-7.597656 7.601562 0 4.195313 3.398438 7.601563 7.597656 7.601563h5.605469c7.824219 0 14.1875 6.363281 14.1875 14.1875s-6.363281 14.1875-14.1875 14.1875h-145.941406c-7.824219 0-14.1875-6.363281-14.1875-14.1875s6.363281-14.1875 14.1875-14.1875zm0 0" />
    <path
        d="m90.949219 188.605469c0 22.351562 18.183593 40.539062 40.535156 40.539062 22.355469 0 40.539063-18.1875 40.539063-40.539062 0-22.351563-18.183594-40.539063-40.539063-40.539063-22.351563 0-40.535156 18.1875-40.535156 40.539063zm65.875 0c0 13.96875-11.367188 25.335937-25.339844 25.335937-13.96875 0-25.335937-11.367187-25.335937-25.335937 0-13.972657 11.367187-25.335938 25.335937-25.335938 13.972656 0 25.339844 11.363281 25.339844 25.335938zm0 0" />
    <path
        d="m38.753906 425.753906c-4.195312 0-7.601562 3.402344-7.601562 7.601563v24.324219c0 4.195312 3.40625 7.601562 7.601562 7.601562 4.199219 0 7.601563-3.40625 7.601563-7.601562v-24.324219c0-4.199219-3.402344-7.601563-7.601563-7.601563zm0 0" />
    <path
        d="m68.246094 433.355469v24.324219c0 4.195312 3.402344 7.601562 7.601562 7.601562 4.199219 0 7.601563-3.40625 7.601563-7.601562v-24.324219c0-4.199219-3.402344-7.601563-7.601563-7.601563-4.199218 0-7.601562 3.402344-7.601562 7.601563zm0 0" />
    <path
        d="m105.339844 433.355469v24.324219c0 4.195312 3.402344 7.601562 7.601562 7.601562 4.195313 0 7.597656-3.40625 7.597656-7.601562v-24.324219c0-4.199219-3.402343-7.601563-7.597656-7.601563-4.199218 0-7.601562 3.402344-7.601562 7.601563zm0 0" />
    <path
        d="m142.433594 433.355469v24.324219c0 4.195312 3.398437 7.601562 7.597656 7.601562s7.601562-3.40625 7.601562-7.601562v-24.324219c0-4.199219-3.402343-7.601563-7.601562-7.601563s-7.597656 3.402344-7.597656 7.601563zm0 0" />
    <path
        d="m179.523438 433.355469v24.324219c0 4.195312 3.402343 7.601562 7.601562 7.601562s7.601562-3.40625 7.601562-7.601562v-24.324219c0-4.199219-3.402343-7.601563-7.601562-7.601563s-7.601562 3.402344-7.601562 7.601563zm0 0" />
    <path
        d="m216.617188 457.679688c0 4.195312 3.402343 7.601562 7.601562 7.601562s7.601562-3.40625 7.601562-7.601562v-24.324219c0-4.199219-3.402343-7.601563-7.601562-7.601563s-7.601562 3.402344-7.601562 7.601563zm0 0" />
    <path
        d="m104.910156 341.339844h-46.839844c-6.839843 0-12.402343 5.5625-12.402343 12.398437v18.738281c0 6.839844 5.5625 12.402344 12.402343 12.402344h46.839844c6.835938 0 12.398438-5.5625 12.398438-12.402344v-18.738281c0-6.835937-5.5625-12.398437-12.398438-12.398437zm-2.800781 28.335937h-41.238281v-13.132812h41.238281zm0 0" />
    <path
        d="m204.902344 341.339844h-46.839844c-6.835938 0-12.398438 5.5625-12.398438 12.398437v18.738281c0 6.839844 5.5625 12.402344 12.398438 12.402344h46.839844c6.839844 0 12.402344-5.5625 12.402344-12.402344v-18.738281c0-6.835937-5.5625-12.398437-12.402344-12.398437zm-2.800782 28.335937h-41.234374v-13.132812h41.234374zm0 0" />
    <path
        d="m243.089844 0c-11.34375 0-215.085938 0-223.207032 0-10.960937 0-19.882812 8.925781-19.882812 19.894531v425.859375c0 4.199219 3.402344 7.601563 7.601562 7.601563 4.195313 0 7.601563-3.402344 7.601563-7.601563v-181.003906c10.515625 7.292969 21.675781 13.609375 33.359375 18.804688 9.261719 4.121093 15.285156-9.839844 6.179688-13.886719-14.078126-6.265625-27.363282-14.25-39.539063-23.765625v-226.007813c0-2.542969 2.144531-4.691406 4.679687-4.691406h223.207032c2.535156 0 4.679687 2.148437 4.679687 4.691406v226.007813c-46.476562 36.292968-107.953125 49.007812-165.511719 33.519531-4.054687-1.089844-8.226562 1.3125-9.316406 5.367187-1.089844 4.050782 1.3125 8.222657 5.363282 9.3125 58.449218 15.726563 120.503906 4.542969 169.464843-29.351562v227.355469c0 2.542969-2.144531 4.691406-4.683593 4.691406h-223.203126c-2.535156 0-4.679687-2.148437-4.679687-4.691406v-15.945313c0-4.199218-3.40625-7.601562-7.601563-7.601562-4.199218 0-7.601562 3.402344-7.601562 7.601562v15.945313c0 10.96875 8.921875 19.894531 19.882812 19.894531h223.207032c10.960937 0 19.882812-8.925781 19.882812-19.894531 0-6.3125 0-457.464844 0-472.210938 0-10.96875-8.917968-19.894531-19.882812-19.894531zm0 0" />
</svg>