<svg enable-background="new 0 0 512 512" height="512" id="Capa_1" viewBox="0 0 512 512" width="512"
    xmlns="http://www.w3.org/2000/svg">
    <g>
        <g>
            <path
                d="m152.433 38v134.405l-66.19 36v64.448c0 8.284 6.716 15 15 15h21.277v53.469l-36.277 14.121v118.557c0 16.569 13.432 30 30 30h279.514c16.569 0 30-13.431 30-30v-436c0-16.569-13.431-30-30-30h-213.324c-16.569 0-30 13.431-30 30z"
                fill="#434d59" />
            <path
                d="m116.243 504h279.514c16.569 0 30-13.431 30-30v-14.484c-47.652-15.314-104.957-26.788-169.757-26.788s-122.105 11.474-169.757 26.788v14.484c0 16.569 13.432 30 30 30z"
                fill="#df667c" />
            <path
                d="m256 414.728c-64.8 0-122.105 11.474-169.757 26.788v14.484c0 1.168.074 2.318.204 3.451 47.611-15.281 104.844-26.723 169.553-26.723s121.942 11.442 169.553 26.723c.13-1.133.204-2.283.204-3.451v-14.484c-47.652-15.314-104.957-26.788-169.757-26.788z"
                fill="#3b434d" />
            <path
                d="m425.553 459.451c-1.712 14.942-14.395 26.549-29.796 26.549h-279.514c-15.401 0-28.084-11.607-29.796-26.549-.068.022-.136.043-.204.065v14.484c0 16.569 13.431 30 30 30h279.514c16.569 0 30-13.431 30-30v-14.484c-.067-.022-.136-.043-.204-.065z"
                fill="#dc4857" />
            <path
                d="m366.799 140.672h-155.409c-8.284 0-15-6.716-15-15v-50.466c0-8.284 6.716-15 15-15h155.409c8.284 0 15 6.716 15 15v50.465c0 8.285-6.716 15.001-15 15.001z"
                fill="#edc963" />
            <path
                d="m366.799 122.672h-155.409c-8.284 0-15-6.716-15-15v18c0 8.284 6.716 15 15 15h155.409c8.284 0 15-6.716 15-15v-18c0 8.284-6.716 15-15 15z"
                fill="#e7b93e" />
        </g>
        <g>
            <path
                d="m152.23 92.62c4.15 0 7.515-3.365 7.515-7.515v-47.532c0-12.431 10.113-22.544 22.544-22.544h213.741c12.431 0 22.544 10.113 22.544 22.544v203.394c0 4.15 3.364 7.515 7.515 7.515s7.515-3.365 7.515-7.515v-203.394c0-20.718-16.855-37.573-37.574-37.573h-213.741c-20.718 0-37.573 16.855-37.573 37.573v47.532c-.001 4.15 3.364 7.515 7.514 7.515z" />
            <path
                d="m85.911 398.728c4.15 0 7.515-3.364 7.515-7.515v-30.436l31.559-12.285c2.887-1.124 4.789-3.905 4.789-7.003v-53.574c0-4.15-3.364-7.515-7.515-7.515h-21.319c-4.144 0-7.515-3.371-7.515-7.515v-60.107l62.395-33.936c2.419-1.315 3.924-3.848 3.924-6.601v-57.077c0-4.15-3.365-7.515-7.515-7.515s-7.515 3.365-7.515 7.515v52.61l-62.394 33.936c-2.419 1.315-3.924 3.848-3.924 6.601v64.574c0 12.431 10.113 22.544 22.544 22.544h13.804v40.921l-31.559 12.285c-2.887 1.124-4.789 3.905-4.789 7.003v35.575c0 4.151 3.365 7.515 7.515 7.515z" />
            <path
                d="m433.604 271.026c0-4.15-3.364-7.515-7.515-7.515s-7.515 3.364-7.515 7.515v178.683c-53.093-16.025-107.732-24.15-162.574-24.15s-109.482 8.125-162.574 24.15v-28.437c0-4.15-3.364-7.515-7.515-7.515-4.15 0-7.515 3.365-7.515 7.515v53.155c0 20.718 16.855 37.573 37.573 37.573h280.061c20.718 0 37.573-16.855 37.573-37.573v-203.401zm-37.574 225.945h-280.06c-12.431 0-22.544-10.113-22.544-22.544v-8.98c53.046-16.48 107.709-24.858 162.574-24.858 54.866 0 109.528 8.378 162.574 24.858v8.98c0 12.431-10.113 22.544-22.544 22.544z" />
            <path
                d="m211.303 52.309c-12.431 0-22.544 10.113-22.544 22.544v50.564c0 12.431 10.113 22.544 22.544 22.544h155.712c12.43 0 22.544-10.113 22.544-22.544v-50.564c0-12.431-10.114-22.544-22.544-22.544zm14.61 80.623h-14.61c-4.144 0-7.515-3.371-7.515-7.515v-50.564c0-4.144 3.371-7.515 7.515-7.515h14.61zm37.154 0h-22.125v-65.594h22.125zm37.155 0h-22.125v-65.594h22.125zm37.155 0h-22.125v-65.594h22.125zm37.153-58.079v50.564c0 4.143-3.371 7.515-7.515 7.515h-14.61v-65.594h14.61c4.145 0 7.515 3.371 7.515 7.515z" />
        </g>
    </g>
</svg>