<svg enable-background="new 0 0 64 64" height="512" id="icons" viewBox="0 0 64 64" width="512"
    xmlns="http://www.w3.org/2000/svg">
    <path
        d="m53 1h-42c-2.2 0-4 1.8-4 4v42c0 2.2 1.8 4 4 4h8 3 5 3 4 3 5 3 8c2.2 0 4-1.8 4-4v-42c0-2.2-1.8-4-4-4z"
        fill="#656d78" />
    <path
        d="m14.68 16c1.82-3.16 4.38-5.63 7.32-7.32 0 0-.1 5.83 4 6.931 4.1 1.1 3.5 6.06 3.5 6.06-.76.44-1.39 1.07-1.83 1.83 0 0-1.97-4.6-6.06-3.5-4.1 1.099-6.93-4.001-6.93-4.001z"
        fill="#545c66" />
    <path
        d="m32 21c-.91 0-1.77.24-2.5.67 0 0 .6-4.96-3.5-6.06-4.1-1.101-4-6.931-4-6.931 3.04-1.759 6.5-2.679 10-2.679 0 0-3 5 0 8s0 7 0 7z"
        fill="#434a54" />
    <path d="m24 61c-2.76 0-5-2.24-5-5v-5h3v5c0 1.11.89 2 2 2z" fill="#fc6e51" />
    <path
        d="m34.5 30.33s-.6 4.97 3.5 6.07c4.1 1.09 4 6.92 4 6.92-3.04 1.75-6.49 2.68-10 2.68 0 0 3-5 0-8s0-7 0-7c.91 0 1.77-.24 2.5-.67z"
        fill="#434a54" />
    <path d="m34 51h3v7h-3z" fill="#fc6e51" />
    <path
        d="m36.33 28.5s1.96 4.6 6.06 3.5c4.101-1.1 6.931 4 6.931 4-1.82 3.16-4.37 5.63-7.32 7.32 0 0 .1-5.83-4-6.92-4.1-1.101-3.5-6.07-3.5-6.07.759-.44 1.389-1.07 1.829-1.83z"
        fill="#545c66" />
    <path
        d="m36.33 23.5s4.96.6 6.06-3.5c1.07-3.99 6.63-4 6.92-4h.011c1.749 3.04 2.679 6.49 2.679 10 0 0-5-3-8 0s-7 0-7 0c0-.91-.24-1.77-.67-2.5z"
        fill="#545c66" />
    <path
        d="m37 26c0 .91-.24 1.77-.67 2.5-.44.76-1.07 1.39-1.83 1.83-.73.43-1.59.67-2.5.67s-1.77-.24-2.5-.67c-.76-.44-1.39-1.07-1.83-1.83-.43-.73-.67-1.59-.67-2.5s.24-1.77.67-2.5c.44-.76 1.07-1.39 1.83-1.83.73-.43 1.59-.67 2.5-.67s1.77.24 2.5.67c.76.44 1.39 1.07 1.83 1.83.43.73.67 1.59.67 2.5z"
        fill="#656d78" />
    <path
        d="m32 38c3 3 0 8 0 8-3.4.01-6.85-.86-10-2.68 0 0 5.1-2.83 4-6.92-1.1-4.101 3.5-6.07 3.5-6.07.73.43 1.59.67 2.5.67 0 0-3 4 0 7z"
        fill="#545c66" />
    <path d="m40 61v2h-16v-2-3h3 3 4 3 3z" fill="#e6e9ed" />
    <path
        d="m27.67 28.5c.44.76 1.07 1.39 1.83 1.83 0 0-4.6 1.97-3.5 6.07 1.1 4.09-4 6.92-4 6.92-3.15-1.82-5.62-4.37-7.31-7.32.29 0 5.85-.01 6.92-4 1.1-4.09 6.06-3.5 6.06-3.5z"
        fill="#434a54" />
    <path
        d="m37 26s4 3 7 0 8 0 8 0c0 3.4-.86 6.85-2.68 10 0 0-2.83-5.1-6.931-4-4.1 1.1-6.06-3.5-6.06-3.5.431-.73.671-1.59.671-2.5z"
        fill="#434a54" />
    <path
        d="m27.67 28.5s-4.96-.59-6.06 3.5c-1.07 3.99-6.63 4-6.92 4h-.01c-1.75-3.04-2.68-6.49-2.68-10 0 0 5 3 8 0s7 0 7 0c0 .91.24 1.77.67 2.5z"
        fill="#545c66" />
    <path d="m45 56c0 2.76-2.24 5-5 5v-3c1.1 0 2-.89 2-2v-5h3z" fill="#fc6e51" />
    <path d="m27 51h3v7h-3z" fill="#fc6e51" />
    <path
        d="m27.67 23.5c-.43.73-.67 1.59-.67 2.5 0 0-4-3-7 0s-8 0-8 0c0-3.4.86-6.85 2.68-10 0 0 2.83 5.1 6.931 4 4.089-1.1 6.059 3.5 6.059 3.5z"
        fill="#434a54" />
    <path
        d="m38 15.61c1.1 4.1-3.5 6.06-3.5 6.06-.73-.43-1.59-.67-2.5-.67 0 0 3-4 0-7s0-8 0-8c3.4 0 6.84.86 10 2.68 0 0-5.1 2.83-4 6.93z"
        fill="#545c66" />
    <path
        d="m49.31 16c-.29 0-5.85.01-6.92 4-1.1 4.1-6.06 3.5-6.06 3.5-.44-.76-1.07-1.39-1.83-1.83 0 0 4.6-1.96 3.5-6.06-1.1-4.101 4-6.931 4-6.931 3.15 1.821 5.62 4.371 7.31 7.321z"
        fill="#434a54" />
    <path
        d="m53.001 52.002h-42.002c-2.757 0-5-2.243-5-5v-42.002c0-2.757 2.243-5 5-5h42.002c2.757 0 5 2.243 5 5v42.002c0 2.757-2.243 5-5 5zm-42.002-50.002c-1.654 0-3 1.346-3 3v42.002c0 1.654 1.346 3 3 3h42.002c1.654 0 3-1.346 3-3v-42.002c0-1.654-1.346-3-3-3z" />
    <path
        d="m40 64h-16c-.553 0-1-.447-1-1v-5.001c0-.553.447-1 1-1h16c.553 0 1 .447 1 1v5.001c0 .553-.447 1-1 1zm-15-2h14v-3.001h-14z" />
    <path
        d="m27.003 58.999c-.553 0-1-.447-1-1v-6.997c0-.553.447-1 1-1s1 .447 1 1v6.997c0 .553-.447 1-1 1z" />
    <path
        d="m30.001 58.999c-.553 0-1-.447-1-1v-6.997c0-.553.447-1 1-1s1 .447 1 1v6.997c0 .553-.447 1-1 1z" />
    <path
        d="m34 58.999c-.553 0-1-.447-1-1v-6.997c0-.553.447-1 1-1s1 .447 1 1v6.997c0 .553-.447 1-1 1z" />
    <path
        d="m36.998 58.999c-.553 0-1-.447-1-1v-6.997c0-.553.447-1 1-1s1 .447 1 1v6.997c0 .553-.447 1-1 1z" />
    <path
        d="m39.999 59c-.553 0-1-.447-1-1s.447-1 1-1c.552 0 1-.448 1-1 0-.553.447-1 1-1s1 .447 1 1c0 1.654-1.346 3-3 3z" />
    <path
        d="m39.999 62c-.553 0-1-.447-1-1s.447-1 1-1c2.206 0 4-1.794 4-4 0-.553.447-1 1-1s1 .447 1 1c0 3.309-2.691 6-6 6z" />
    <path d="m42 57c-.553 0-1-.447-1-1v-5c0-.553.447-1 1-1s1 .447 1 1v5c0 .553-.447 1-1 1z" />
    <path d="m45 57c-.553 0-1-.447-1-1v-5c0-.553.447-1 1-1s1 .447 1 1v5c0 .553-.447 1-1 1z" />
    <path
        d="m24.001 59c-1.654 0-3-1.346-3-3 0-.553.447-1 1-1s1 .447 1 1c0 .552.448 1 1 1 .553 0 1 .447 1 1s-.447 1-1 1z" />
    <path
        d="m24.001 62c-3.309 0-6-2.691-6-6 0-.553.447-1 1-1s1 .447 1 1c0 2.206 1.794 4 4 4 .553 0 1 .447 1 1s-.447 1-1 1z" />
    <path d="m22 57c-.553 0-1-.447-1-1v-5c0-.553.447-1 1-1s1 .447 1 1v5c0 .553-.447 1-1 1z" />
    <path d="m19 57c-.553 0-1-.447-1-1v-5c0-.553.447-1 1-1s1 .447 1 1v5c0 .553-.447 1-1 1z" />
    <path
        d="m32 32.001c-3.309 0-6-2.691-6-6s2.691-6 6-6 6 2.691 6 6-2.691 6-6 6zm0-10c-2.206 0-4 1.794-4 4s1.794 4 4 4 4-1.794 4-4-1.794-4-4-4z" />
    <path
        d="m31.999 22.001c-.209 0-.419-.065-.599-.2-.442-.332-.532-.958-.2-1.4.099-.134 2.434-3.353.093-5.694-3.511-3.512-.289-8.989-.15-9.221.284-.473.896-.625 1.37-.343.474.283.628.897.346 1.371-.025.043-2.557 4.373-.151 6.779 2.857 2.858 1.311 6.684.093 8.308-.197.262-.497.4-.802.4z" />
    <path
        d="m29.501 22.671c-.039 0-.08-.002-.12-.007-.549-.066-.939-.563-.874-1.112.02-.165.432-4.121-2.767-4.979-4.796-1.285-4.744-7.64-4.74-7.909.01-.546.455-.982 1-.982h.015c.551.008.992.462.985 1.014-.001.05-.028 5.065 3.258 5.946 3.903 1.046 4.478 5.134 4.235 7.148-.061.508-.493.881-.992.881z" />
    <path
        d="m27.67 24.501c-.388 0-.757-.228-.92-.607-.065-.152-1.682-3.782-4.885-2.927-4.807 1.282-7.929-4.244-8.06-4.479-.268-.482-.095-1.089.388-1.358.479-.268 1.089-.096 1.359.385.025.044 2.51 4.399 5.795 3.521 3.905-1.048 6.444 2.207 7.242 4.073.217.508-.019 1.095-.526 1.313-.128.053-.261.079-.393.079z" />
    <path
        d="m16.605 28.342c-2.603 0-4.969-1.392-5.119-1.482-.473-.284-.626-.896-.343-1.37.282-.474.896-.63 1.37-.346.043.026 4.371 2.557 6.778.151 2.858-2.858 6.684-1.311 8.308-.094.442.332.532.958.2 1.4-.33.443-.957.532-1.399.201-.135-.098-3.354-2.433-5.694-.092-1.228 1.228-2.699 1.632-4.101 1.632z" />
    <path
        d="m14.728 37.001c-.031 0-.053 0-.063 0-.552-.01-.99-.464-.982-1.015s.446-.989 1.014-.985c.078.017 5.065.028 5.946-3.258 1.047-3.904 5.134-4.477 7.147-4.235.549.066.939.563.874 1.112-.066.547-.56.945-1.112.874-.166-.019-4.12-.432-4.978 2.767-1.232 4.597-7.123 4.74-7.846 4.74z" />
    <path
        d="m22.003 44.321c-.352 0-.691-.186-.875-.514-.269-.481-.095-1.09.386-1.359.045-.025 4.401-2.509 3.521-5.795-1.046-3.904 2.206-6.444 4.071-7.242.508-.217 1.095.017 1.313.526.217.508-.019 1.095-.526 1.313-.152.066-3.783 1.687-2.927 4.885 1.285 4.796-4.244 7.929-4.48 8.06-.153.086-.32.126-.483.126z" />
    <path
        d="m32.001 47c-.175 0-.352-.046-.513-.143-.474-.283-.628-.896-.346-1.37.025-.044 2.558-4.373.151-6.778-2.857-2.858-1.311-6.684-.094-8.308.33-.441.957-.533 1.399-.201.442.331.532.958.2 1.4-.099.133-2.433 3.353-.092 5.694 3.512 3.511.289 8.988.15 9.22-.185.313-.515.486-.855.486z" />
    <path
        d="m42.001 44.319c-.005 0-.01 0-.015 0-.552-.008-.992-.463-.985-1.014.001-.051.028-5.065-3.259-5.945-3.903-1.048-4.477-5.134-4.235-7.148.066-.547.57-.936 1.112-.874.549.065.939.563.874 1.112-.019.165-.431 4.12 2.767 4.979 4.797 1.283 4.745 7.639 4.741 7.908-.01.547-.455.982-1 .982z" />
    <path
        d="m49.322 36.999c-.351 0-.691-.185-.874-.512-.024-.044-2.499-4.401-5.796-3.52-3.901 1.041-6.443-2.208-7.242-4.074-.217-.508.019-1.095.526-1.313.506-.216 1.095.017 1.313.526.065.152 1.695 3.784 4.885 2.928 4.803-1.293 7.93 4.242 8.061 4.479.268.482.095 1.089-.388 1.358-.153.087-.32.128-.485.128z" />
    <path
        d="m40.844 28.328c-1.811 0-3.499-.819-4.443-1.527-.442-.331-.532-.958-.2-1.4.331-.442.956-.532 1.399-.201.133.099 3.354 2.435 5.694.094 3.512-3.513 8.99-.291 9.222-.152.473.284.626.896.343 1.37-.282.474-.896.63-1.37.346-.043-.026-4.373-2.558-6.78-.149-1.196 1.195-2.563 1.619-3.865 1.619z" />
    <path
        d="m37.05 24.542c-.305 0-.588-.018-.839-.048-.549-.066-.939-.563-.874-1.112.066-.549.571-.939 1.112-.874.167.018 4.121.431 4.979-2.767 1.284-4.797 7.651-4.738 7.91-4.742.552.009.99.463.982 1.015s-.455.977-1.013.986c-.065.012-5.066-.028-5.947 3.26-.918 3.417-4.164 4.282-6.31 4.282z" />
    <path
        d="m31.98 47.003c-3.665 0-7.289-.975-10.48-2.816-4.856-2.805-8.331-7.333-9.783-12.752-1.452-5.42-.707-11.079 2.098-15.935 3.739-6.478 10.714-10.502 18.205-10.502 3.665 0 7.289.974 10.481 2.815 10.028 5.793 13.476 18.663 7.685 28.688-3.74 6.478-10.716 10.502-18.206 10.502zm.04-40.005c-6.778 0-13.09 3.641-16.473 9.502-2.538 4.394-3.212 9.513-1.898 14.417 1.313 4.904 4.457 9 8.852 11.538 2.888 1.667 6.166 2.549 9.48 2.549 6.777 0 13.09-3.641 16.473-9.501 5.239-9.071 2.121-20.715-6.952-25.957-2.89-1.667-6.168-2.548-9.482-2.548z" />
    <path
        d="m34.5 22.671c-.388 0-.757-.228-.92-.607-.217-.508.019-1.095.526-1.313.152-.066 3.784-1.687 2.929-4.885-1.286-4.797 4.244-7.93 4.48-8.062.483-.268 1.09-.093 1.358.388.269.481.095 1.09-.386 1.36-.045.024-4.402 2.509-3.521 5.796 1.044 3.903-2.208 6.443-4.073 7.241-.128.056-.261.082-.393.082z" />
</svg>