<svg height="512" viewBox="0 0 128 128" width="512" xmlns="http://www.w3.org/2000/svg">
    <g>
        <g>
            <path d="m27.833 74.583h-5.833a1.75 1.75 0 0 1 0-3.5h5.833a1.75 1.75 0 0 1 0 3.5z"
                fill="#ffc612" />
            <path d="m27.833 80.833h-5.833a1.75 1.75 0 0 1 0-3.5h5.833a1.75 1.75 0 0 1 0 3.5z"
                fill="#ffc612" />
            <path d="m32.667 44.167h76.816v42.667h-76.816z" fill="#01ebcd" />
            <path d="m69.816 47.167h36.666v36.666h-36.666z" fill="#00c5ca"
                transform="matrix(0 1 -1 0 153.649 -22.649)" />
            <path
                d="m45.199 86.833v8.167h8.551v-4.083h5.729v4.083h8.731v-4.083h5.729v4.083h23.01v-8.167z"
                fill="#ffc612" />
            <path
                d="m98.778 54.352c-.03-.035-.054-.074-.087-.107s-.072-.057-.107-.087a15.87 15.87 0 0 0 -22.3 0c-.035.03-.073.054-.106.087s-.057.071-.087.106a15.872 15.872 0 0 0 0 22.3c.03.035.054.073.087.106s.071.057.106.087a15.87 15.87 0 0 0 22.3 0c.036-.03.074-.055.108-.088s.057-.072.087-.107a15.87 15.87 0 0 0 0-22.3zm.937 9.4h-8.039v-.012l5.68-5.68a12.335 12.335 0 0 1 2.359 5.69zm-10.529-10.531a12.335 12.335 0 0 1 5.692 2.363l-5.678 5.68h-.011zm-1.75 11.189a1.09 1.09 0 1 1 -1.09 1.09 1.091 1.091 0 0 1 1.09-1.09zm-1.75-11.189v8.039h-.011l-5.675-5.676a12.332 12.332 0 0 1 5.686-2.363zm-8.166 4.837 5.68 5.68v.012h-8.042a12.334 12.334 0 0 1 2.362-5.692zm-2.362 9.192h8.042v.012l-5.68 5.68a12.334 12.334 0 0 1 -2.362-5.692zm10.517 2.486h.011v8.044a12.379 12.379 0 0 1 -5.686-2.364zm3.511 8.048v-8.044h.011l5.681 5.68a12.387 12.387 0 0 1 -5.692 2.364zm8.166-4.842-5.68-5.68v-.012h8.039a12.335 12.335 0 0 1 -2.359 5.692z"
                fill="#01ebcd" />
            <path d="m27.833 33h-9.315v4.833h9.315v57.167h4.834v-57.167-4.833z" fill="#b373f0" />
            <path d="m22 50h5.833v16.625h-5.833z" fill="#ffc612" />
            <g fill="#f1f3f8">
                <path d="m40.625 54.958h23.375v8.25h-23.375z" />
                <path d="m64 71.583h-23.375a1.75 1.75 0 0 1 0-3.5h23.375a1.75 1.75 0 0 1 0 3.5z" />
                <path d="m64 77.792h-23.375a1.75 1.75 0 0 1 0-3.5h23.375a1.75 1.75 0 0 1 0 3.5z" />
            </g>
        </g>
        <g>
            <path d="m89.688 85.083a1.75 1.75 0 0 0 0 3.5h.479a1.75 1.75 0 0 0 0-3.5z" />
            <path
                d="m109.482 42.417h-54.732a1.75 1.75 0 0 0 0 3.5h52.982v39.166h-11.565a1.75 1.75 0 0 0 0 3.5h13.315a1.749 1.749 0 0 0 1.75-1.75v-42.666a1.749 1.749 0 0 0 -1.75-1.75z" />
            <path d="m47.25 45.917h.667a1.75 1.75 0 0 0 0-3.5h-.667a1.75 1.75 0 0 0 0 3.5z" />
            <path
                d="m40.625 45.917a1.75 1.75 0 0 0 0-3.5h-6.208v-9.417a1.75 1.75 0 0 0 -1.75-1.75h-14.149a1.749 1.749 0 0 0 -1.75 1.75v4.833a1.749 1.749 0 0 0 1.75 1.75h7.565v8.667h-4.083a1.75 1.75 0 0 0 -1.75 1.75v16.625a1.75 1.75 0 0 0 3.5 0v-14.875h2.333v19.333h-4.083a1.75 1.75 0 0 0 0 3.5h4.083v2.75h-4.083a1.75 1.75 0 0 0 0 3.5h4.083v14.167a1.75 1.75 0 0 0 1.75 1.75h4.834a1.75 1.75 0 0 0 1.75-1.75v-49.083zm-9.708 47.333h-1.334v-55.417a1.749 1.749 0 0 0 -1.75-1.75h-7.565v-1.333h10.649z" />
            <path
                d="m96.949 93.25h-21.26v-2.333a1.75 1.75 0 0 0 -1.75-1.75h-5.729a1.75 1.75 0 0 0 -1.75 1.75v2.333h-5.231v-2.333a1.75 1.75 0 0 0 -1.75-1.75h-5.729a1.75 1.75 0 0 0 -1.75 1.75v2.333h-5.051v-4.667h36.176a1.75 1.75 0 0 0 0-3.5h-43.792a1.75 1.75 0 0 0 0 3.5h4.116v6.417a1.75 1.75 0 0 0 1.75 1.75h8.551a1.75 1.75 0 0 0 1.75-1.75v-2.333h2.229v2.333a1.75 1.75 0 0 0 1.75 1.75h8.731a1.75 1.75 0 0 0 1.75-1.75v-2.333h2.229v2.333a1.75 1.75 0 0 0 1.75 1.75h23.01a1.75 1.75 0 1 0 0-3.5z" />
            <path
                d="m98.691 76.755c.033-.033.057-.072.087-.107a15.87 15.87 0 0 0 0-22.3c-.03-.035-.054-.074-.087-.107s-.072-.057-.107-.087a15.87 15.87 0 0 0 -22.3 0c-.035.03-.073.054-.106.087s-.057.071-.087.106a15.9 15.9 0 0 0 22.492 22.496c.036-.03.074-.055.108-.088zm-23.533-13a12.334 12.334 0 0 1 2.362-5.692l5.68 5.68v.012zm11.188 1.745a1.09 1.09 0 1 1 1.09 1.09 1.091 1.091 0 0 1 -1.09-1.09zm2.854-4.236h-.011v-8.043a12.335 12.335 0 0 1 5.692 2.363zm-3.511 0h-.011l-5.678-5.68a12.332 12.332 0 0 1 5.691-2.363zm3.5 8.48h.011l5.681 5.68a12.335 12.335 0 0 1 -5.692 2.363zm2.486-2.478a4.562 4.562 0 0 0 0-3.524l5.68-5.68a12.335 12.335 0 0 1 2.363 5.692h-4.551a1.75 1.75 0 0 0 0 3.5h4.548a12.335 12.335 0 0 1 -2.363 5.692zm-16.517-.016h8.042v.012l-3.014 3.013a1.75 1.75 0 1 0 2.475 2.475l3.014-3.014h.011v8.039a12.424 12.424 0 0 1 -10.528-10.525z" />
            <path
                d="m65.75 54.958a1.75 1.75 0 0 0 -1.75-1.75h-23.375a1.75 1.75 0 0 0 -1.75 1.75v8.25a1.75 1.75 0 0 0 1.75 1.75h23.375a1.75 1.75 0 0 0 1.75-1.75zm-3.5 6.5h-19.875v-4.75h19.875z" />
            <path d="m64 68.083h-23.375a1.75 1.75 0 0 0 0 3.5h23.375a1.75 1.75 0 0 0 0-3.5z" />
            <path d="m64 74.292h-23.375a1.75 1.75 0 0 0 0 3.5h23.375a1.75 1.75 0 0 0 0-3.5z" />
        </g>
    </g>
</svg>