<svg height="512" viewBox="0 0 46 60" width="512" xmlns="http://www.w3.org/2000/svg">
    <g fill="none" fill-rule="evenodd" id="Page-1">
        <g fill-rule="nonzero" id="021---HDD">
            <g id="Icons" transform="translate(1 1)">
                <path
                    d="m1 7v-5c.00159279-.55162365.44837635-.99840721 1-1h40c.5516236.00159279.9984072.44837635 1 1v54c-.0015928.5516236-.4483764.9984072-1 1h-40c-.55162365-.0015928-.99840721-.4483764-1-1z"
                    fill="#283593" id="Shape" />
                <path
                    d="m44 8.41v41.18c-.0020288.2621531-.1060413.5132178-.29.7l-7.42 7.42c-.1867822.1839587-.4378469.2879712-.7.29h-27.18c-.26215315-.0020288-.51321781-.1060413-.7-.29l-7.42-7.42c-.1839587-.1867822-.28797121-.4378469-.29-.7v-41.18c.00202879-.26215315.1060413-.51321781.29-.7l7.42-7.42c.18678219-.1839587.43784685-.28797121.7-.29h27.18c.2621531.00202879.5132178.1060413.7.29l7.42 7.42c.1839587.18678219.2879712.43784685.29.7z"
                    fill="#0377bc" id="Shape" />
                <path
                    d="m41 8.41v41.18c-.0020288.2621531-.1060413.5132178-.29.7l-7.42 7.42c-.1867822.1839587-.4378469.2879712-.7.29h-24.18c-.26215315-.0020288-.51321781-.1060413-.7-.29l-7.42-7.42c-.1839587-.1867822-.28797121-.4378469-.29-.7v-41.18c.00202879-.26215315.1060413-.51321781.29-.7l7.42-7.42c.18678219-.1839587.43784685-.28797121.7-.29h24.18c.2621531.00202879.5132178.1060413.7.29l7.42 7.42c.1839587.18678219.2879712.43784685.29.7z"
                    fill="#02a9f4" id="Shape" />
                <path
                    d="m33 47c.0014357 1.0613054-.4195306 2.0795554-1.1699876 2.8300124s-1.768707 1.1714233-2.8300124 1.1699876l-14 .0000037 2.46-8.0000037h11.54c1.0609554-.0002919 2.0785407.4210417 2.8287495 1.1712505s1.1715424 1.7677941 1.1712505 2.8287495z"
                    fill="#283593" id="Shape" />
                <path
                    d="m30 47c.0014357 1.0613054-.4195306 2.0795554-1.1699876 2.8300124s-1.768707 1.1714233-2.8300124 1.1699876l-11 .0000037 2.46-8.0000037h8.54c1.0609554-.0002919 2.0785407.4210417 2.8287495 1.1712505s1.1715424 1.7677941 1.1712505 2.8287495z"
                    fill="#3f51b5" id="Shape" />
                <path
                    d="m39 22c.0000172 7.25544-4.6017429 13.7123599-11.46 16.08l-10.07.31c-.09-.03-.19-.05-.28-.08-7.83251298-2.3108154-12.91545338-9.8642404-12.10626688-17.9903307.80918649-8.1260904 7.28186438-14.52882054 15.41626688-15.2496693.4984911-.04873148.999137-.07209495 1.5-.07 4.5088023-.00039789 8.83305 1.79054062 12.0212547 4.97874531s4.9791432 7.51245239 4.9787453 12.02125469z"
                    fill="#cfd8dc" id="Shape" />
                <path
                    d="m36 22c.0000172 7.25544-4.6017429 13.7123599-11.46 16.08l-7.35.23c-7.83251298-2.3108154-12.91545338-9.8642404-12.10626688-17.9903307.80918649-8.1260904 7.28186438-14.52882054 15.41626688-15.2496693 8.7756086.76919766 15.5062063 8.1207473 15.5 16.93z"
                    fill="#f5f5f5" id="Shape" />
                <path
                    d="m29 22c.0013544 1.8569303-.7357086 3.6381947-2.0487569 4.9512431-1.3130484 1.3130483-3.0943128 2.0501113-4.9512431 2.0487569-.5041704-.0016338-1.0068286-.0552507-1.5-.16-3.2119465-.7058144-5.5001331-3.5514175-5.5001331-6.84s2.2881866-6.1341856 5.5001331-6.84c.4931714-.1047493.9958296-.1583662 1.5-.16 1.8569303-.0013544 3.6381947.7357086 4.9512431 2.0487569 1.3130483 1.3130484 2.0501113 3.0943128 2.0487569 4.9512431z"
                    fill="#707070" id="Shape" />
                <ellipse cx="20.5" cy="22" fill="#9e9e9e" id="Oval" rx="5.5" ry="6.84" />
                <circle cx="22" cy="22" fill="#f5f5f5" id="Oval" r="2" />
                <path
                    d="m32.38 30.33-11.94 19.11-2.92-.14-6.52-.3v-6.57l17.75-11.09 2.85-1.78c.2211409-.1412235.5105747-.1106304.6973041.073705.1867293.1843354.2210544.4733504.0826959.696295z"
                    fill="#fec108" id="Shape" />
                <path d="m28.75 31.34-11.23 17.96-6.52-.3v-6.57z" fill="#ffeb3a" id="Shape" />
                <path
                    d="m21.59 53h-12.18c-.26215315-.0020288-.51321781-.1060413-.7-.29l-3.42-3.42c-.1839587-.1867822-.28797121-.4378469-.29-.7v-12.18c.00169577-.4044441.24684724-.7680455.62114764-.9212679s.80404325-.0658935 1.08885236.2212679l4 4c.1839587.1867822.2879712.4378469.29.7v5.18c.0020288.2621531.1060413.5132178.29.7l.42.42c.1867822.1839587.4378469.2879712.7.29h5.18c.2621531.0020288.5132178.1060413.7.29l4 4c.2871614.2848091.3744903.714552.2212679 1.0888524s-.5168238.6194518-.9212679.6211476z"
                    fill="#4527a0" id="Shape" />
                <path
                    d="m18.59 53h-9.18c-.26215315-.0020288-.51321781-.1060413-.7-.29l-3.42-3.42c-.1839587-.1867822-.28797121-.4378469-.29-.7v-11.59l2.71 2.71c.1839587.1867822.28797121.4378469.29.7v5.18c.00202879.2621531.1060413.5132178.29.7l.42.42c.18678219.1839587.43784685.2879712.7.29h5.18c.2621531.0020288.5132178.1060413.7.29l4 4c.2871614.2848091.3744903.714552.2212679 1.0888524s-.5168238.6194518-.9212679.6211476z"
                    fill="#673ab7" id="Shape" />
            </g>
            <g fill="#000" id="Layer_10">
                <path
                    d="m45 31c-.5522847 0-1-.4477153-1-1v-20.5859l-7.4141-7.4141h-27.1718l-7.4141 7.4141v20.5859c0 .5522847-.44771525 1-1 1s-1-.4477153-1-1v-20.5859c-.00144561-.53070851.20953767-1.03992757.5859-1.4141l7.4141-7.4141c.37417243-.37636233.88339149-.58734561 1.4141-.5859h27.1718c.5307085-.00144561 1.0399276.20953767 1.4141.5859l7.4141 7.4141c.3763623.37417243.5873456.88339149.5859 1.4141v20.5859c0 .5522847-.4477153 1-1 1z"
                    id="Shape" />
                <path
                    d="m36.5859 60h-27.1718c-.53070851.0014456-1.03992757-.2095377-1.4141-.5859l-7.4141-7.4141c-.37636233-.3741724-.58734561-.8833915-.5859-1.4141v-20.5859c0-.5522847.44771525-1 1-1s1 .4477153 1 1v20.5859l7.4141 7.4141h27.1718l7.4141-7.4141v-20.5859c0-.5522847.4477153-1 1-1s1 .4477153 1 1v20.5859c.0014456.5307085-.2095377 1.0399276-.5859 1.4141l-7.4141 7.4141c-.3741724.3763623-.8833915.5873456-1.4141.5859z"
                    id="Shape" />
                <path
                    d="m23 31c-4.418278 0-8-3.581722-8-8s3.581722-8 8-8 8 3.581722 8 8c-.0050699 4.4161763-3.5838237 7.9949301-8 8zm0-14c-3.3137085 0-6 2.6862915-6 6s2.6862915 6 6 6 6-2.6862915 6-6c-.0036374-3.3122007-2.6877993-5.9963626-6-6z"
                    id="Shape" />
                <path
                    d="m23 26c-1.6568542 0-3-1.3431458-3-3s1.3431458-3 3-3 3 1.3431458 3 3c-.0018187 1.6561003-1.3438997 2.9981813-3 3zm0-4c-.5522847 0-1 .4477153-1 1s.4477153 1 1 1 1-.4477153 1-1c-.0007162-.5519878-.4480122-.9992838-1-1z"
                    id="Shape" />
                <path
                    d="m21.439 51.44c-.3633826-.0002898-.6980091-.1976803-.8740387-.5155806-.1760295-.3179004-.1657543-.7062718.0268387-1.0144194l10.9341-17.5-18.9959 11.8683c-.4684203.2927109-1.0854391.1502703-1.37815-.31815s-.1502703-1.0854391.31815-1.37815l20.6-12.87c.617873-.3896442 1.4232924-.298965 1.9390587.2183114.5157662.5172763.6040902 1.3229574.2126413 1.9396886l-11.9336 19.1c-.1828644.2927997-.5038888.4704954-.8491.47zm11.0927-20.64-.0039.0063z"
                    id="Shape" />
                <path
                    d="m22.5859 55h-12.1718c-.53070851.0014456-1.03992757-.2095377-1.4141-.5859l-3.4141-3.4141c-.37636233-.3741724-.58734561-.8833915-.5859-1.4141v-12.1718c.00009185-.8088539.48737511-1.5380221 1.23466385-1.8475447s1.60744413-.1384555 2.17943615.4334447l4 4c.3763623.3741724.5873456.8833915.5859 1.4141v5.1718l.4141.4141h5.1718c.5307085-.0014456 1.0399276.2095377 1.4141.5859l4 4c.5719002.571992.7429673 1.4321474.4334447 2.1794361-.3095226.7472888-1.0386908 1.2345721-1.8475447 1.2346639zm-15.5859-17.5859v12.1718l3.4141 3.4141h12.1718l-4-4h-5.1718c-.5307085.0014456-1.0399276-.2095377-1.4141-.5859l-.4141-.4141c-.3763623-.3741724-.5873456-.8833915-.5859-1.4141v-5.1718z"
                    id="Shape" />
                <circle cx="25" cy="39" id="Oval" r="1" />
                <circle cx="8" cy="8" id="Oval" r="1" />
                <circle cx="21" cy="10" id="Oval" r="1" />
                <circle cx="38" cy="8" id="Oval" r="1" />
                <circle cx="38" cy="38" id="Oval" r="1" />
                <circle cx="19" cy="45" id="Oval" r="1" />
                <path
                    d="m2 9c-.55228475 0-1-.44771525-1-1v-5c.00110246-1.10411252.89588748-1.99889754 2-2h5c.55228475 0 1 .44771525 1 1s-.44771525 1-1 1h-5v5c0 .55228475-.44771525 1-1 1z"
                    id="Shape" />
                <path
                    d="m43 59h-5c-.5522847 0-1-.4477153-1-1s.4477153-1 1-1h5v-5c0-.5522847.4477153-1 1-1s1 .4477153 1 1v5c-.0011025 1.1041125-.8958875 1.9988975-2 2z"
                    id="Shape" />
                <path
                    d="m8 59h-5c-1.10411252-.0011025-1.99889754-.8958875-2-2v-5c0-.5522847.44771525-1 1-1s1 .4477153 1 1v5h5c.55228475 0 1 .4477153 1 1s-.44771525 1-1 1z"
                    id="Shape" />
                <path
                    d="m44 9c-.5522847 0-1-.44771525-1-1v-5h-5c-.5522847 0-1-.44771525-1-1s.4477153-1 1-1h5c1.1041125.00110246 1.9988975.89588748 2 2v5c0 .55228475-.4477153 1-1 1z"
                    id="Shape" />
                <path
                    d="m18.4707 40.3906c-.0899163-.0000645-.1794165-.0122064-.2661-.0361-8.57433962-2.3734128-14.12727252-10.656466-13.06582194-19.4896824 1.06145057-8.8332163 8.41864314-15.56491386 17.31117044-15.8394065s16.6509027 5.9906208 18.255137 14.7415533c1.6042343 8.7509326-3.4272545 17.3607035-11.8388855 20.2584356-.3383551.1189553-.7145036.0475999-.9857883-.1870042-.2712848-.2346042-.3961557-.5965248-.3272544-.9485009.0689013-.351976.3210217-.6400986.6607427-.7550949 7.4831037-2.5751128 11.9609361-10.232421 10.5358703-18.0168435-1.4250657-7.7844226-8.3251766-13.35881231-16.2352377-13.1159548-7.9100612.24285751-14.45520434 6.2300482-15.40003591 14.0872322-.94483158 7.857184 3.99431881 15.2253686 11.62130331 17.3365661.4837671.1318605.7950895.6016022.7280436 1.0985153-.0670458.4969132-.4917289.8673495-.9931436.8662847z"
                    id="Shape" />
                <path
                    d="m30 53h-7c-.5522847 0-1-.4477153-1-1s.4477153-1 1-1h7c1.6568542 0 3-1.3431458 3-3s-1.3431458-3-3-3h-4.54c-.5522847 0-1-.4477153-1-1s.4477153-1 1-1h4.54c2.7614237 0 5 2.2385763 5 5s-2.2385763 5-5 5z"
                    id="Shape" />
                <path
                    d="m11 23c-.5522847 0-1-.4477153-1-1 .0409997-4.5527748 2.5501467-8.7244754 6.5527-10.8945.4937702-.2474236 1.0946264-.0477202 1.34205.44605.2474235.4937702.0477202 1.0946264-.44605 1.34205-3.3278644 1.8283541-5.4107901 5.309543-5.4487 9.1064 0 .5522847-.4477153 1-1 1z"
                    id="Shape" />
            </g>
        </g>
    </g>
</svg>