<svg data-name="color line" height="512" id="color_line" viewBox="0 0 74 74" width="512"
    xmlns="http://www.w3.org/2000/svg">
    <path d="m43.317 3.521h17.001v5.827h-17.001z" fill="#9297ab" />
    <path
        d="m60.318 9.848h-17a.5.5 0 0 1 -.5-.5v-5.827a.5.5 0 0 1 .5-.5h17a.5.5 0 0 1 .5.5v5.827a.5.5 0 0 1 -.5.5zm-16.5-1h16v-4.827h-16z"
        fill="#323c6b" />
    <path d="m27.832 3.521h4.569v5.827h-4.569z" fill="#fcd462" />
    <path
        d="m32.4 9.848h-4.568a.5.5 0 0 1 -.5-.5v-5.827a.5.5 0 0 1 .5-.5h4.568a.5.5 0 0 1 .5.5v5.827a.5.5 0 0 1 -.5.5zm-4.068-1h3.568v-4.827h-3.568z"
        fill="#323c6b" />
    <path d="m14.434 3.521h8.984v5.827h-8.984z" fill="#fcd462" />
    <path
        d="m23.417 9.848h-8.983a.5.5 0 0 1 -.5-.5v-5.827a.5.5 0 0 1 .5-.5h8.983a.5.5 0 0 1 .5.5v5.827a.5.5 0 0 1 -.5.5zm-8.483-1h7.983v-4.827h-7.983z"
        fill="#323c6b" />
    <path
        d="m70.851 10.93v56.384a4.214 4.214 0 0 1 -4.206 4.206h-58.581a4.214 4.214 0 0 1 -4.206-4.206v-56.384a4.214 4.214 0 0 1 4.206-4.206h6.37v2.624h8.984v-2.624h4.415v2.624h4.567v-2.624h10.917v2.624h17v-2.624h6.326a4.214 4.214 0 0 1 4.208 4.206z"
        fill="#27ccbc" />
    <path
        d="m70.854 10.931v56.38a4.217 4.217 0 0 1 -4.21 4.21h-58.58a4.215 4.215 0 0 1 -4.12-3.36 3.792 3.792 0 0 0 1.12.16h58.58a4.217 4.217 0 0 0 4.21-4.21v-56.38a4.022 4.022 0 0 0 -.09-.85 4.2 4.2 0 0 1 3.09 4.05z"
        fill="#21b3a9" />
    <rect fill="#fcd462" height="20.877" rx="2.046" width="20.877" x="38.074" y="22.192" />
    <path
        d="m56.905 43.57h-16.785a2.549 2.549 0 0 1 -2.546-2.546v-16.785a2.549 2.549 0 0 1 2.546-2.546h16.785a2.549 2.549 0 0 1 2.546 2.546v16.784a2.549 2.549 0 0 1 -2.546 2.547zm-16.785-20.878a1.548 1.548 0 0 0 -1.546 1.546v16.785a1.548 1.548 0 0 0 1.546 1.547h16.785a1.548 1.548 0 0 0 1.546-1.546v-16.785a1.548 1.548 0 0 0 -1.546-1.546z"
        fill="#323c6b" />
    <path d="m43.591 25.568h9.844l2.141 2.141v9.844l-2.141 2.142h-9.844l-2.142-2.142v-9.844z"
        fill="#eeefee" />
    <g fill="#323c6b">
        <path
            d="m53.436 40.195h-9.845a.5.5 0 0 1 -.354-.146l-2.137-2.142a.5.5 0 0 1 -.146-.354v-9.844a.5.5 0 0 1 .146-.354l2.142-2.142a.5.5 0 0 1 .354-.146h9.845a.5.5 0 0 1 .354.146l2.141 2.142a.5.5 0 0 1 .146.354v9.844a.5.5 0 0 1 -.146.354l-2.141 2.142a.5.5 0 0 1 -.359.146zm-9.638-1h9.431l1.848-1.849v-9.43l-1.848-1.849h-9.429l-1.849 1.849v9.43z" />
        <path d="m41.449 22.692a.5.5 0 0 1 -.5-.5v-2.47a.5.5 0 0 1 1 0v2.471a.5.5 0 0 1 -.5.499z" />
        <path d="m46.158 22.692a.5.5 0 0 1 -.5-.5v-2.47a.5.5 0 1 1 1 0v2.471a.5.5 0 0 1 -.5.499z" />
        <path d="m50.867 22.692a.5.5 0 0 1 -.5-.5v-2.47a.5.5 0 0 1 1 0v2.471a.5.5 0 0 1 -.5.499z" />
        <path d="m55.576 22.692a.5.5 0 0 1 -.5-.5v-2.47a.5.5 0 1 1 1 0v2.471a.5.5 0 0 1 -.5.499z" />
        <path d="m41.449 46.041a.5.5 0 0 1 -.5-.5v-2.471a.5.5 0 0 1 1 0v2.471a.5.5 0 0 1 -.5.5z" />
        <path d="m46.158 46.041a.5.5 0 0 1 -.5-.5v-2.471a.5.5 0 0 1 1 0v2.471a.5.5 0 0 1 -.5.5z" />
        <path d="m50.867 46.041a.5.5 0 0 1 -.5-.5v-2.471a.5.5 0 0 1 1 0v2.471a.5.5 0 0 1 -.5.5z" />
        <path d="m55.576 46.041a.5.5 0 0 1 -.5-.5v-2.471a.5.5 0 0 1 1 0v2.471a.5.5 0 0 1 -.5.5z" />
        <path d="m61.422 26.067h-2.471a.5.5 0 0 1 0-1h2.471a.5.5 0 0 1 0 1z" />
        <path d="m61.422 30.776h-2.471a.5.5 0 0 1 0-1h2.471a.5.5 0 0 1 0 1z" />
        <path d="m61.422 35.486h-2.471a.5.5 0 1 1 0-1h2.471a.5.5 0 0 1 0 1z" />
        <path d="m61.422 40.195h-2.471a.5.5 0 1 1 0-1h2.471a.5.5 0 0 1 0 1z" />
        <path d="m38.074 26.067h-2.474a.5.5 0 0 1 0-1h2.471a.5.5 0 0 1 0 1z" />
        <path d="m38.074 30.776h-2.474a.5.5 0 0 1 0-1h2.471a.5.5 0 0 1 0 1z" />
        <path d="m38.074 35.486h-2.474a.5.5 0 1 1 0-1h2.471a.5.5 0 0 1 0 1z" />
        <path d="m38.074 40.195h-2.474a.5.5 0 1 1 0-1h2.471a.5.5 0 0 1 0 1z" />
    </g>
    <circle cx="19.645" cy="57.333" fill="#e1e6e9" r="5.215" />
    <path
        d="m19.645 63.048a5.715 5.715 0 1 1 5.715-5.715 5.721 5.721 0 0 1 -5.715 5.715zm0-10.43a4.715 4.715 0 1 0 4.715 4.715 4.72 4.72 0 0 0 -4.715-4.715z"
        fill="#323c6b" />
    <path d="m63.712 54.449h-31.312a.5.5 0 0 1 0-1h31.312a.5.5 0 0 1 0 1z" fill="#21b3a9" />
    <path d="m63.712 61.771h-31.312a.5.5 0 1 1 0-1h31.312a.5.5 0 0 1 0 1z" fill="#21b3a9" />
    <path d="m29.911 20.222h-3.295a.5.5 0 0 1 0-1h3.295a.5.5 0 0 1 0 1z" fill="#21b3a9" />
    <path d="m29.911 26.914h-3.295a.5.5 0 0 1 0-1h3.295a.5.5 0 0 1 0 1z" fill="#21b3a9" />
    <path d="m29.911 33.606h-3.295a.5.5 0 0 1 0-1h3.295a.5.5 0 0 1 0 1z" fill="#21b3a9" />
    <path d="m29.911 40.3h-3.295a.5.5 0 1 1 0-1h3.295a.5.5 0 1 1 0 1z" fill="#21b3a9" />
    <path d="m10.1 12.99h-.918a.5.5 0 0 1 0-1h.918a.5.5 0 0 1 0 1z" fill="#323c6b" />
    <path d="m10.1 66.255h-.918a.5.5 0 0 1 0-1h.918a.5.5 0 1 1 0 1z" fill="#323c6b" />
    <path d="m65.526 12.99h-.915a.5.5 0 0 1 0-1h.915a.5.5 0 0 1 0 1z" fill="#323c6b" />
    <path d="m65.526 66.255h-.915a.5.5 0 0 1 0-1h.915a.5.5 0 0 1 0 1z" fill="#323c6b" />
    <path d="m73.851 56.938a.5.5 0 0 1 -.5-.5v-9.667a.5.5 0 0 1 1 0v9.667a.5.5 0 0 1 -.5.5z"
        fill="#323c6b" />
    <path d="m.857 14.755a.5.5 0 0 1 -.5-.5v-.484a.5.5 0 0 1 1 0v.484a.5.5 0 0 1 -.5.5z"
        fill="#323c6b" />
    <path
        d="m.857 11.958a.5.5 0 0 1 -.5-.5v-.528a7.715 7.715 0 0 1 7.706-7.706.5.5 0 0 1 0 1 6.714 6.714 0 0 0 -6.706 6.707v.528a.5.5 0 0 1 -.5.499z"
        fill="#323c6b" />
    <path d="m73.851 44.805a.5.5 0 0 1 -.5-.5v-.618a.5.5 0 0 1 1 0v.618a.5.5 0 0 1 -.5.5z"
        fill="#323c6b" />
    <path
        d="m66.645 72.021h-58.582a4.712 4.712 0 0 1 -4.706-4.707v-56.384a4.712 4.712 0 0 1 4.706-4.706h6.37a.5.5 0 0 1 .5.5v2.124h7.983v-2.124a.5.5 0 0 1 .5-.5h4.415a.5.5 0 0 1 .5.5v2.124h3.569v-2.124a.5.5 0 0 1 .5-.5h10.917a.5.5 0 0 1 .5.5v2.124h16v-2.124a.5.5 0 0 1 .5-.5h6.326a4.712 4.712 0 0 1 4.706 4.706v56.384a4.712 4.712 0 0 1 -4.704 4.707zm-58.582-64.797a3.71 3.71 0 0 0 -3.706 3.706v56.384a3.71 3.71 0 0 0 3.706 3.707h58.582a3.71 3.71 0 0 0 3.706-3.707v-56.384a3.71 3.71 0 0 0 -3.706-3.706h-5.827v2.124a.5.5 0 0 1 -.5.5h-17a.5.5 0 0 1 -.5-.5v-2.124h-9.918v2.124a.5.5 0 0 1 -.5.5h-4.568a.5.5 0 0 1 -.5-.5v-2.124h-3.415v2.124a.5.5 0 0 1 -.5.5h-8.983a.5.5 0 0 1 -.5-.5v-2.124z"
        fill="#323c6b" />
    <path
        d="m7.166 45.33a.65.65 0 0 1 -.65-.65v-10.409a.65.65 0 1 1 1.3 0v10.409a.65.65 0 0 1 -.65.65z"
        fill="#fff" />
    <path
        d="m7.166 32.421a.65.65 0 0 1 -.65-.65v-.958a.65.65 0 0 1 1.3 0v.958a.65.65 0 0 1 -.65.65z"
        fill="#fff" />
    <path d="m10.608 40.195a.5.5 0 0 1 -.5-.5v-20.895a.5.5 0 0 1 1 0v20.89a.5.5 0 0 1 -.5.505z"
        fill="#21b3a9" />
    <path d="m18.251 40.195a.5.5 0 0 1 -.5-.5v-20.895a.5.5 0 0 1 1 0v20.89a.5.5 0 0 1 -.5.505z"
        fill="#21b3a9" />
</svg>