<svg data-name="Layer 1" height="512" id="Layer_1" viewBox="0 0 128 128" width="512"
    xmlns="http://www.w3.org/2000/svg">
    <path
        d="m103.916 87.084a44.564 44.564 0 1 0 -72.277-13.509 19.347 19.347 0 0 1 -4.139 21.441l-3.825 3.825a32.98 32.98 0 0 1 -9.115 6.149 6.3 6.3 0 1 0 7.233 10.1 6.167 6.167 0 0 0 1.283-1.867 30.166 30.166 0 0 1 6.251-9.116l3.629-3.629a19.744 19.744 0 0 1 21.854-3.965 44.561 44.561 0 0 0 49.106-9.429zm-57.336-57.336a36.522 36.522 0 1 1 0 51.65 36.522 36.522 0 0 1 0-51.65z"
        fill="#48578a" />
    <circle cx="72.405" cy="55.573" fill="#36d9f6" r="36.522"
        transform="matrix(.707 -.707 .707 .707 -18.089 67.475)" />
    <path
        d="m31.551 96.074a19.744 19.744 0 0 1 21.849-3.965 44.557 44.557 0 0 0 60.68-52.309 44.562 44.562 0 1 0 -82.441 33.775 19.347 19.347 0 0 1 -4.139 21.441l-3.825 3.825a32.979 32.979 0 0 1 -9.115 6.149 6.233 6.233 0 0 0 -3.5 5.237 6.3 6.3 0 0 0 9.326.46 6.166 6.166 0 0 0 1.283-1.867 30.167 30.167 0 0 1 6.253-9.12zm15.029-66.326a36.522 36.522 0 1 1 0 51.65 36.522 36.522 0 0 1 0-51.65z"
        fill="#62739a" />
    <path
        d="m46.58 29.748a36.53 36.53 0 0 0 -5.352 44.846 36.516 36.516 0 0 0 56.6-45.225 36.516 36.516 0 0 0 -51.248.379z"
        fill="#7be2f6" />
    <g fill="#e1f4fe">
        <path
            d="m108.763 52.118-64.791 26.376a36.919 36.919 0 0 0 2.608 2.9c.567.567 1.152 1.1 1.745 1.624l60.483-24.618a36.744 36.744 0 0 0 -.045-6.282z" />
        <path
            d="m37.022 64.618a36.3 36.3 0 0 0 3.548 8.851l67.118-27.311a36.288 36.288 0 0 0 -3.635-8.816z" />
    </g>
</svg>