<?xml version="1.0" encoding="iso-8859-1"?><!-- Generator: Adobe Illustrator 19.0.0, SVG Export Plug-In . SVG Version: 6.00 Build 0)  -->
<svg style="enable-background:new 0 0 512 512;" id="Capa_1" version="1.1" viewBox="0 0 512 512"
    x="0px" xmlns="http://www.w3.org/2000/svg" y="0px" xml:space="preserve">
<path style="fill:#52C14D;" d="M472,256c0,13.79,11.21,25,25,25c8.28,0,15,6.72,15,15v80c0,8.28-6.72,15-15,15H186
	c-8.28,0-15-6.72-15-15v-25h-30v25c0,8.28-6.72,15-15,15H15c-8.28,0-15-6.72-15-15v-80c0-8.28,6.72-15,15-15c13.79,0,25-11.21,25-25
	s-11.21-25-25-25c-8.28,0-15-6.72-15-15v-80c0-8.28,6.72-15,15-15h482c8.28,0,15,6.72,15,15v80c0,8.28-6.72,15-15,15
	C483.21,231,472,242.21,472,256z" />
    <path style="fill:#12A709;" d="M497,281c-13.79,0-25-11.21-25-25H40c0,13.79-11.21,25-25,25c-8.28,0-15,6.72-15,15v80
	c0,8.28,6.72,15,15,15h111c8.28,0,15-6.72,15-15v-25h30v25c0,8.28,6.72,15,15,15h311c8.28,0,15-6.72,15-15v-80
	C512,287.72,505.28,281,497,281z" />
    <path style="fill:#0B4EB1;" d="M422,186v100c0,8.28-6.72,15-15,15H105c-8.28,0-15-6.72-15-15V186c0-8.28,6.72-15,15-15h302
	C415.28,171,422,177.72,422,186z" />
    <path style="fill:#09489F;"
        d="M90,256v30c0,8.28,6.72,15,15,15h302c8.28,0,15-6.72,15-15v-30H90z" />
    <g>
	<rect style="fill:#07418E;" height="130" width="30" x="291.33" y="171" />
        <rect style="fill:#07418E;" height="130" width="30" x="190.67" y="171" />
</g>
    <g>
	<path style="fill:#FAD557;" d="M59,391v-55c0-8.29,6.72-15,15-15s15,6.71,15,15v55H59z" />
        <path style="fill:#FAD557;"
            d="M252.83,336v55h-30v-55c0-8.29,6.72-15,15-15C246.12,321,252.83,327.71,252.83,336z" />
        <path style="fill:#FAD557;"
            d="M304.67,336v55h-30v-55c0-8.29,6.71-15,15-15C297.95,321,304.67,327.71,304.67,336z" />
        <path style="fill:#FAD557;"
            d="M356.5,336v55h-30v-55c0-8.29,6.72-15,15-15S356.5,327.71,356.5,336z" />
        <path style="fill:#FAD557;"
            d="M408.33,336v55h-30v-55c0-8.29,6.72-15,15-15C401.62,321,408.33,327.71,408.33,336z" />
        <path style="fill:#FAD557;"
            d="M460.17,336v55h-30v-55c0-8.29,6.71-15,15-15C453.45,321,460.17,327.71,460.17,336z" />
</g>
    <g>
	<rect style="fill:#053B7C;" height="45" width="30" x="291.33" y="256" />
        <rect style="fill:#053B7C;" height="45" width="30" x="190.67" y="256" />
</g>
    <g>
</g>
    <g>
</g>
    <g>
</g>
    <g>
</g>
    <g>
</g>
    <g>
</g>
    <g>
</g>
    <g>
</g>
    <g>
</g>
    <g>
</g>
    <g>
</g>
    <g>
</g>
    <g>
</g>
    <g>
</g>
    <g>
</g>
</svg>
