<svg height="512pt" viewBox="0 -48 512 512" width="512pt" xmlns="http://www.w3.org/2000/svg">
    <path
        d="m496 408h-480c-4.414062 0-8-3.585938-8-8v-224c0-4.414062 3.585938-8 8-8h480c4.414062 0 8 3.585938 8 8v224c0 4.414062-3.585938 8-8 8zm0 0"
        fill="#70a5f4" />
    <path d="m168 200h-80l-48 48v80l48 48h80l48-48v-80zm0 0" fill="#d64a49" />
    <path
        d="m153.457031 232h-50.914062l-30.542969 30.542969v50.914062l30.542969 30.542969h50.914062l30.542969-30.542969v-50.914062zm0 0"
        fill="#fcbe56" />
    <path
        d="m152 288c0 13.253906-10.746094 24-24 24s-24-10.746094-24-24 10.746094-24 24-24 24 10.746094 24 24zm0 0"
        fill="#d64a49" />
    <path
        d="m221.65625 242.34375-48-48c-1.496094-1.503906-3.527344-2.34375-5.65625-2.34375h-80c-2.128906 0-4.160156.839844-5.65625 2.34375l-48 48c-1.503906 1.496094-2.34375 3.535156-2.34375 5.65625v80c0 2.121094.839844 4.160156 2.34375 5.65625l48 48c1.496094 1.503906 3.527344 2.34375 5.65625 2.34375h80c2.128906 0 4.160156-.839844 5.65625-2.34375l48-48c1.503906-1.496094 2.34375-3.535156 2.34375-5.65625v-80c0-2.121094-.839844-4.160156-2.34375-5.65625zm-13.65625 8.96875v28.6875h-16v-17.457031c0-2.117188-.839844-4.160157-2.34375-5.65625l-30.542969-30.542969c-1.503906-1.503906-3.539062-2.34375-5.65625-2.34375h-17.457031v-16h28.6875zm-128 44.6875h17.136719c2.910156 11.191406 11.671875 19.953125 22.863281 22.863281v17.136719h-14.144531l-25.855469-25.855469zm48 8c-8.824219 0-16-7.175781-16-16s7.175781-16 16-16 16 7.175781 16 16-7.175781 16-16 16zm-8-46.863281c-11.191406 2.910156-19.953125 11.671875-22.863281 22.863281h-17.136719v-14.144531l25.855469-25.855469h14.144531zm16 61.726562c11.191406-2.910156 19.953125-11.671875 22.863281-22.863281h17.136719v14.144531l-25.855469 25.855469h-14.144531zm22.863281-38.863281c-2.910156-11.191406-11.671875-19.953125-22.863281-22.863281v-17.136719h14.144531l25.855469 25.855469v14.144531zm-67.550781-72h28.6875v16h-17.457031c-2.128907 0-4.160157.839844-5.65625 2.34375l-30.542969 30.542969c-1.503906 1.503906-2.34375 3.539062-2.34375 5.65625v17.457031h-16v-28.6875zm-43.3125 116.6875v-28.6875h16v17.457031c0 2.117188.839844 4.160157 2.34375 5.65625l30.542969 30.542969c1.503906 1.503906 3.539062 2.34375 5.65625 2.34375h17.457031v16h-28.6875zm116.6875 43.3125h-28.6875v-16h17.457031c2.128907 0 4.160157-.839844 5.65625-2.34375l30.542969-30.542969c1.503906-1.503906 2.34375-3.539062 2.34375-5.65625v-17.457031h16v28.6875zm0 0" />
    <path d="m32 192h16v16h-16zm0 0" />
    <path d="m32 368h16v16h-16zm0 0" />
    <path d="m360 376h-112v-40l16-24h80l16 24zm0 0" fill="#d64a49" />
    <path
        d="m360 384h-112c-4.425781 0-8-3.585938-8-8v-40c0-1.574219.472656-3.128906 1.34375-4.441406l16-24c1.488281-2.222656 3.984375-3.558594 6.65625-3.558594h80c2.671875 0 5.167969 1.335938 6.65625 3.558594l16 24c.871094 1.3125 1.34375 2.867187 1.34375 4.441406v40c0 4.414062-3.574219 8-8 8zm-104-16h96v-29.574219l-12.28125-18.425781h-71.4375l-12.28125 18.425781zm0 0" />
    <path d="m272 336h24v16h-24zm0 0" />
    <path d="m312 336h24v16h-24zm0 0" />
    <path d="m280 280h-24c-4.414062 0-8-3.585938-8-8v-64c0-4.414062 3.585938-8 8-8h24zm0 0"
        fill="#d64a49" />
    <path d="m280 200h32v80h-32zm0 0" fill="#fcbe56" />
    <path d="m312 200h32v80h-32zm0 0" fill="#d64a49" />
    <path d="m344 200h32v80h-32zm0 0" fill="#fcbe56" />
    <path d="m376 200h32v80h-32zm0 0" fill="#d64a49" />
    <path d="m432 280h-24v-80h24c4.414062 0 8 3.585938 8 8v64c0 4.414062-3.585938 8-8 8zm0 0"
        fill="#fcbe56" />
    <path
        d="m432 192h-176c-8.824219 0-16 7.175781-16 16v64c0 8.824219 7.175781 16 16 16h176c8.824219 0 16-7.175781 16-16v-64c0-8.824219-7.175781-16-16-16zm-176 16h16v64h-16zm32 0h16v64h-16zm32 0h16v64h-16zm32 0h16v64h-16zm32 0h16v64h-16zm32 64v-64h16l.007812 64zm0 0" />
    <path d="m464 192h16v16h-16zm0 0" />
    <path d="m464 368h16v16h-16zm0 0" />
    <path d="m440 360h-48v-24l8-8h32l8 8zm0 0" fill="#fcbe56" />
    <path
        d="m440 368h-48c-4.425781 0-8-3.585938-8-8v-24c0-2.121094.839844-4.160156 2.34375-5.65625l8-8c1.496094-1.503906 3.527344-2.34375 5.65625-2.34375h32c2.128906 0 4.160156.839844 5.65625 2.34375l8 8c1.503906 1.503906 2.34375 3.535156 2.34375 5.65625v24c0 4.414062-3.574219 8-8 8zm-40-16h32v-12.679688l-3.3125-3.320312h-25.375l-3.3125 3.320312zm0 0" />
    <path d="m488 168h-464l48-160h368zm0 0" fill="#4b81d1" />
    <path
        d="m496 160h-2.046875l-46.289063-154.296875c-1.015624-3.382813-4.136718-5.703125-7.664062-5.703125h-368c-3.527344 0-6.648438 2.320312-7.664062 5.703125l-46.289063 154.296875h-2.046875c-8.824219 0-16 7.175781-16 16v224c0 8.824219 7.175781 16 16 16h480c8.824219 0 16-7.175781 16-16v-224c0-8.824219-7.175781-16-16-16zm-418.046875-144h356.09375l43.199219 144h-442.492188zm-61.953125 384v-224h480l.007812 224zm0 0" />
    <path d="m88 32h16v16h-16zm0 0" />
    <path d="m408 32h16v16h-16zm0 0" />
    <path d="m376 112-8-48h-216l-16 48zm0 0" fill="#fcbe56" />
    <path
        d="m376 120h-40v-16h30.550781l-5.328125-32h-203.453125l-10.664062 32h172.894531v16h-184c-2.566406 0-4.984375-1.230469-6.496094-3.328125-1.503906-2.085937-1.910156-4.769531-1.097656-7.207031l16-48c1.097656-3.265625 4.144531-5.464844 7.59375-5.464844h216c3.910156 0 7.246094 2.832031 7.886719 6.679688l8 48c.394531 2.320312-.261719 4.6875-1.789063 6.488281-1.511718 1.800781-3.746094 2.832031-6.097656 2.832031zm0 0" />
</svg>