<svg enable-background="new 0 0 512 512" height="512" id="Capa_1" viewBox="0 0 512 512" width="512"
    xmlns="http://www.w3.org/2000/svg">
    <path
        d="m436.694 512h-361.388c-11.475 0-20.777-9.302-20.777-20.777v-470.446c0-11.475 9.302-20.777 20.777-20.777h361.387c11.475 0 20.777 9.302 20.777 20.777v470.446c.001 11.475-9.302 20.777-20.776 20.777z"
        fill="#3c5959" />
    <path
        d="m436.694 0h-18.641v491.223c0 11.475-9.302 20.777-20.777 20.777h39.418c11.475 0 20.777-9.302 20.777-20.777v-470.446c0-11.475-9.303-20.777-20.777-20.777z"
        fill="#394949" />
    <path
        d="m114.3 512h283.4v-57.683c0-4.484-3.635-8.119-8.119-8.119h-267.162c-4.484 0-8.119 3.635-8.119 8.119z"
        fill="#fd7e42" />
    <path
        d="m389.581 446.197h-39.16c4.484 0 8.119 3.635 8.119 8.119v57.684h39.16v-57.683c0-4.484-3.635-8.12-8.119-8.12z"
        fill="#fa6931" />
    <path
        d="m114.3 0h283.4v57.576c0 4.484-3.635 8.119-8.119 8.119h-267.162c-4.484 0-8.119-3.635-8.119-8.119z"
        fill="#3590bb" />
    <path
        d="m358.54 0v57.576c0 4.484-3.635 8.119-8.119 8.119h39.16c4.484 0 8.119-3.635 8.119-8.119v-57.576z"
        fill="#0e80ac" />
    <path
        d="m114.3 363.373v-214.746c0-7.623 6.18-13.803 13.803-13.803h255.795c7.623 0 13.803 6.18 13.803 13.803v214.746c0 7.623-6.18 13.803-13.803 13.803h-255.795c-7.623 0-13.803-6.18-13.803-13.803z"
        fill="#69d8e4" />
    <path
        d="m383.897 134.824h-39.177c7.623 0 13.803 6.18 13.803 13.803v214.746c0 7.623-6.18 13.803-13.803 13.803h39.177c7.623 0 13.803-6.18 13.803-13.803v-214.746c0-7.623-6.18-13.803-13.803-13.803z"
        fill="#29d0df" />
    <path
        d="m364.377 40.522h-216.754c-4.268 0-7.728-3.46-7.728-7.728s3.46-7.728 7.728-7.728h216.753c4.268 0 7.728 3.46 7.728 7.728s-3.459 7.728-7.727 7.728z"
        fill="#fff" />
    <g fill="#fcb143">
        <path
            d="m356.65 472.926c-4.268 0-7.728 3.46-7.728 7.728v31.346h15.456v-31.346c0-4.268-3.46-7.728-7.728-7.728z" />
        <path
            d="m213.403 480.654c0-4.268-3.46-7.728-7.728-7.728s-7.728 3.46-7.728 7.728v31.346h15.456z" />
        <path
            d="m163.078 512v-31.346c0-4.268-3.46-7.728-7.728-7.728s-7.728 3.46-7.728 7.728v31.346z" />
        <path
            d="m263.728 480.654c0-4.268-3.46-7.728-7.728-7.728s-7.728 3.46-7.728 7.728v31.346h15.456z" />
        <path
            d="m314.053 480.654c0-4.268-3.46-7.728-7.728-7.728s-7.728 3.46-7.728 7.728v31.346h15.456z" />
    </g>
    <path
        d="m329.717 214.484h-19.174c-4.145 0-7.508 3.367-7.5 7.514v.049.007 66.531c0 5.554 3.626 8.6 7.637 8.6h.028c.579-.002 14.245-.055 19.701-.15 19.787-.346 34.148-17.673 34.148-41.201 0-24.732-14.001-41.35-34.84-41.35zm.429 67.554c-2.739.048-7.741.085-11.992.111-.026-8.002-.063-20.332-.063-26.388 0-5.054-.021-17.957-.035-26.276h11.661c14.628 0 19.84 13.612 19.84 26.351 0 12.456-6.075 25.969-19.411 26.202z"
        fill="#fff" />
    <path
        d="m187.908 249.348c-8.765-3.233-16.91-6.758-19.2-7.762-3.972-3.047-3.128-10.175 4.116-12.357 10.493-3.163 20.097 4.479 20.325 4.664 3.171 2.635 7.878 2.217 10.534-.943 2.665-3.171 2.255-7.902-.916-10.567-.638-.537-15.832-13.07-34.271-7.516-21.751 6.552-21.445 33.489-6.536 40.137.402.18 9.974 4.44 20.756 8.417 17.879 6.593 8.671 19.796-3.462 19.796-7.272 0-14.283-2.945-18.754-7.878-2.781-3.068-7.524-3.303-10.594-.521-3.069 2.782-3.302 7.524-.521 10.594 7.267 8.018 18.433 12.805 29.869 12.805 29.63.001 41.747-36.662 8.654-48.869z"
        fill="#fff" />
    <path
        d="m264.58 249.348c-8.764-3.232-16.909-6.757-19.2-7.762-3.972-3.047-3.128-10.175 4.116-12.357 10.491-3.158 20.089 4.474 20.325 4.664 3.171 2.636 7.878 2.217 10.534-.942 2.665-3.171 2.255-7.902-.916-10.567-.638-.537-15.832-13.07-34.27-7.516-21.631 6.516-21.551 33.442-6.537 40.137.402.18 9.974 4.44 20.756 8.417 17.879 6.593 8.671 19.796-3.462 19.796-7.272 0-14.283-2.945-18.753-7.878-2.781-3.069-7.524-3.303-10.594-.521-3.069 2.782-3.303 7.524-.521 10.594 7.267 8.019 18.433 12.806 29.869 12.806 29.629-.001 41.746-36.664 8.653-48.871z"
        fill="#fff" />
</svg>